<svg xmlns="http://www.w3.org/2000/svg" xmlns:xlink="http://www.w3.org/1999/xlink" width="1080" zoomAndPan="magnify" viewBox="0 0 810 809.999993" height="1080" preserveAspectRatio="xMidYMid meet" version="1.0"><defs><g/><clipPath id="945c84bb1a"><path d="M 198 159 L 649 159 L 649 598 L 198 598 Z M 198 159 " clip-rule="nonzero"/></clipPath><clipPath id="4f14296eb7"><path d="M 186.296875 401.589844 L 386.015625 155.09375 L 759.542969 457.742188 L 559.824219 704.238281 Z M 186.296875 401.589844 " clip-rule="nonzero"/></clipPath><clipPath id="d153a8ac99"><path d="M 186.296875 401.589844 L 386.015625 155.09375 L 759.542969 457.742188 L 559.824219 704.238281 Z M 186.296875 401.589844 " clip-rule="nonzero"/></clipPath><clipPath id="398fe93e8e"><rect x="0" width="370" y="0" height="253"/></clipPath><clipPath id="2fa45607e4"><rect x="0" width="443" y="0" height="171"/></clipPath></defs><g clip-path="url(#945c84bb1a)"><g clip-path="url(#4f14296eb7)"><g clip-path="url(#d153a8ac99)"><path fill="#fca129" d="M 645.003906 597 C 643.566406 597.359375 641.808594 596.703125 640.84375 595.539062 C 640.84375 595.539062 640.613281 595.351562 640.613281 595.351562 C 636.222656 593.703125 631.644531 592.285156 626.835938 590.679688 C 622.027344 589.074219 617.59375 587.007812 612.96875 585.171875 C 608.347656 583.335938 603.726562 581.5 599.105469 579.664062 C 594.480469 577.828125 589.902344 576.410156 585.511719 574.761719 C 576.3125 571.507812 567.253906 567.605469 558.199219 563.703125 C 553.761719 561.636719 549.558594 559.757812 544.9375 557.921875 C 540.316406 556.085938 535.230469 553.875 530.378906 551.855469 C 521.550781 548.140625 512.726562 544.425781 504.128906 540.894531 C 494.65625 537.039062 485.179688 533.179688 475.894531 529.089844 C 466.605469 525 457.59375 521.515625 448.535156 517.617188 C 443.914062 515.78125 439.292969 513.945312 434.667969 512.109375 C 430.046875 510.273438 425.84375 508.394531 421.40625 506.328125 C 412.351562 502.425781 403.292969 498.523438 394.46875 494.808594 C 385.640625 491.09375 376.394531 487.421875 367.570312 483.707031 C 358.742188 479.992188 349.457031 475.902344 340.628906 472.1875 C 331.800781 468.472656 322.558594 464.800781 313.5 460.898438 C 309.296875 459.019531 304.90625 457.371094 300.46875 455.304688 C 296.035156 453.238281 290.996094 451.445312 286.144531 449.421875 C 281.289062 447.402344 276.898438 445.753906 272.464844 443.6875 C 268.027344 441.621094 263.40625 439.785156 259.203125 437.90625 C 250.5625 433.960938 241.964844 430.429688 233.328125 426.484375 C 224.6875 422.539062 215.902344 419.242188 207.308594 415.714844 C 206.429688 415.382812 205.320312 414.867188 204.023438 414.582031 C 202.730469 414.292969 201.390625 413.589844 200.84375 412.382812 C 198.855469 411.535156 197.570312 409.351562 198.417969 407.363281 C 198.605469 407.132812 198.746094 406.484375 198.933594 406.253906 C 201.175781 403.488281 203 400.765625 205.011719 397.8125 C 209.074219 392.324219 212.449219 386.277344 216.050781 380.414062 C 219.65625 374.554688 223.820312 368 228.027344 361.863281 C 232.238281 355.726562 237.003906 348.898438 241.632812 342.71875 C 246.257812 336.539062 250.695312 330.589844 254.902344 324.453125 L 259.296875 318.085938 L 260.792969 316.242188 C 264.109375 311.675781 267.199219 306.921875 270.097656 302.402344 L 271.21875 301.019531 L 271.964844 300.097656 L 272.152344 299.867188 C 276.359375 293.730469 280.523438 287.175781 284.964844 281.226562 C 289.402344 275.277344 293.796875 268.910156 298.652344 262.917969 C 303.507812 256.921875 307.992188 251.390625 312.847656 245.398438 C 317.703125 239.40625 322.789062 233.597656 327.832031 227.375 C 332.875 221.152344 337.171875 215.851562 341.839844 210.085938 C 346.507812 204.324219 351.320312 197.914062 356.175781 191.921875 C 358.417969 189.15625 360.847656 186.15625 363.316406 183.578125 C 365.789062 181 368.402344 177.773438 370.832031 174.777344 C 373.304688 172.195312 375.960938 169.386719 378.664062 166.992188 C 380.015625 165.796875 381.367188 164.601562 382.949219 163.59375 L 386.066406 161.15625 L 386.253906 160.925781 C 387.792969 159.5 389.691406 159.511719 391.492188 160.585938 C 391.953125 160.960938 392.183594 161.148438 392.457031 161.75 C 393.523438 161.851562 394.402344 162.179688 395.324219 162.925781 C 396.980469 164.652344 398.21875 166.421875 399.691406 168.375 C 400.929688 170.144531 402.171875 171.914062 403.410156 173.679688 C 406.121094 177.402344 408.832031 181.128906 411.355469 185.082031 C 416.820312 192.945312 421.910156 201.269531 426.960938 209.179688 L 428.703125 211.738281 C 434.027344 220.25 439.347656 228.761719 444.667969 237.273438 C 449.992188 245.785156 454.664062 254.15625 459.382812 262.941406 C 461.765625 267.542969 464.144531 272.144531 466.527344 276.746094 C 468.90625 281.347656 470.96875 284.929688 473.121094 289.34375 C 478.113281 298.734375 483.289062 307.894531 488.46875 317.054688 C 493.1875 325.839844 497.675781 334.441406 502.390625 343.226562 C 507.109375 352.011719 512.101562 361.402344 517.050781 370.375 C 522 379.347656 526.902344 387.90625 532.039062 396.648438 C 537.171875 405.390625 542.351562 414.550781 547.71875 423.480469 C 553.082031 432.410156 558.40625 440.921875 563.769531 449.851562 C 569.136719 458.78125 573.578125 466.960938 578.484375 475.515625 C 582.609375 482.679688 586.734375 489.839844 590.859375 497 C 594.984375 504.160156 599.296875 511.089844 603.839844 518.207031 C 609.164062 526.722656 614.902344 535.1875 620.222656 543.703125 C 622.746094 547.65625 625.085938 551.839844 627.609375 555.792969 C 630.132812 559.746094 632.742188 564.535156 635.3125 568.90625 C 637.878906 573.277344 639.984375 577.277344 642.320312 581.460938 C 643.375 583.460938 644.429688 585.457031 645.480469 587.457031 C 645.988281 588.25 646.535156 589.457031 647.039062 590.246094 C 647.542969 591.039062 647.589844 591.457031 647.863281 592.058594 C 647.949219 592.894531 648.039062 593.730469 648.125 594.5625 C 647.980469 595.210938 647.796875 595.441406 647.421875 595.902344 C 646.585938 595.988281 646.027344 596.679688 645.003906 597 Z M 645.003906 597 " fill-opacity="1" fill-rule="nonzero"/></g></g></g><g transform="matrix(1, 0, 0, 1, 180, 183)"><g clip-path="url(#398fe93e8e)"><g fill="#333333" fill-opacity="1"><g transform="translate(6.293812, 198.328303)"><g><path d="M -5.171875 0 L -4.8125 -1.84375 L -0.921875 -1.84375 C 2.273438 -1.84375 4.953125 -2.519531 7.109375 -3.875 C 9.265625 -5.226562 10.773438 -8.25 11.640625 -12.9375 L 34.1875 -119.015625 C 34.550781 -120.242188 34.796875 -121.347656 34.921875 -122.328125 C 35.046875 -123.316406 35.109375 -124.117188 35.109375 -124.734375 C 35.109375 -126.828125 34.304688 -128.242188 32.703125 -128.984375 C 31.109375 -129.722656 28.832031 -130.09375 25.875 -130.09375 L 22.359375 -130.09375 L 22.734375 -131.9375 L 62.09375 -131.9375 C 73.175781 -131.9375 81.644531 -129.347656 87.5 -124.171875 C 93.351562 -119.003906 96.28125 -111.0625 96.28125 -100.34375 C 96.28125 -95.164062 95.507812 -89.867188 93.96875 -84.453125 C 92.425781 -79.035156 89.867188 -74.046875 86.296875 -69.484375 C 82.722656 -64.921875 77.914062 -61.222656 71.875 -58.390625 C 65.84375 -55.554688 58.269531 -54.140625 49.15625 -54.140625 L 37.140625 -54.140625 L 28.28125 -13.859375 C 27.65625 -10.773438 27.34375 -8.554688 27.34375 -7.203125 C 27.34375 -5.109375 28.113281 -3.691406 29.65625 -2.953125 C 31.195312 -2.210938 33.445312 -1.84375 36.40625 -1.84375 L 43.0625 -1.84375 L 42.6875 0 Z M 37.703125 -56 L 45.09375 -56 C 51.375 -56 56.734375 -57.382812 61.171875 -60.15625 C 65.609375 -62.925781 69.269531 -66.585938 72.15625 -71.140625 C 75.050781 -75.703125 77.175781 -80.816406 78.53125 -86.484375 C 79.894531 -92.148438 80.578125 -97.941406 80.578125 -103.859375 C 80.578125 -112.597656 79.035156 -119.15625 75.953125 -123.53125 C 72.867188 -127.90625 67.632812 -130.09375 60.25 -130.09375 L 53.40625 -130.09375 Z M 37.703125 -56 "/></g></g></g><g fill="#333333" fill-opacity="1"><g transform="translate(94.995607, 198.328303)"><g><path d="M 36.953125 -121.234375 C 34.617188 -121.234375 32.617188 -121.847656 30.953125 -123.078125 C 29.285156 -124.304688 28.453125 -126.273438 28.453125 -128.984375 C 28.453125 -132.429688 29.5625 -135.046875 31.78125 -136.828125 C 34 -138.617188 36.585938 -139.515625 39.546875 -139.515625 C 41.890625 -139.515625 43.921875 -138.929688 45.640625 -137.765625 C 47.367188 -136.597656 48.234375 -134.597656 48.234375 -131.765625 C 48.234375 -128.304688 47.125 -125.6875 44.90625 -123.90625 C 42.6875 -122.125 40.035156 -121.234375 36.953125 -121.234375 Z M 25.125 1.84375 C 15.03125 1.84375 9.984375 -3.632812 9.984375 -14.59375 C 9.984375 -19.40625 11.03125 -26.488281 13.125 -35.84375 L 23.09375 -84.265625 C 23.832031 -86.972656 24.203125 -89.5 24.203125 -91.84375 C 24.203125 -93.6875 23.585938 -95.039062 22.359375 -95.90625 C 21.128906 -96.769531 18.726562 -97.203125 15.15625 -97.203125 L 12.9375 -97.203125 L 13.3125 -99.046875 L 42.875 -99.046875 L 27.34375 -26.234375 C 26.488281 -22.546875 25.9375 -19.46875 25.6875 -17 C 25.4375 -14.539062 25.3125 -12.445312 25.3125 -10.71875 C 25.3125 -8.007812 25.679688 -5.789062 26.421875 -4.0625 C 27.160156 -2.34375 28.578125 -1.484375 30.671875 -1.484375 C 32.523438 -1.484375 34.4375 -2.28125 36.40625 -3.875 C 38.375 -5.476562 40.34375 -7.453125 42.3125 -9.796875 L 43.609375 -8.3125 C 41.148438 -5.351562 38.53125 -2.921875 35.75 -1.015625 C 32.976562 0.890625 29.4375 1.84375 25.125 1.84375 Z M 25.125 1.84375 "/></g></g></g><g fill="#333333" fill-opacity="1"><g transform="translate(138.976922, 198.328303)"><g><path d="M -2.21875 0 L -1.84375 -1.84375 L 60.421875 -97.203125 L 39.171875 -97.203125 C 33.378906 -97.203125 29.160156 -96.304688 26.515625 -94.515625 C 23.867188 -92.734375 21.679688 -89.007812 19.953125 -83.34375 L 16.625 -72.8125 L 14.59375 -72.8125 L 21.8125 -99.046875 L 78.359375 -99.046875 L 77.984375 -97.390625 L 15.34375 -1.84375 L 43.609375 -1.84375 C 49.273438 -1.84375 53.15625 -2.734375 55.25 -4.515625 C 57.34375 -6.304688 59.066406 -9.238281 60.421875 -13.3125 L 65.421875 -30.125 L 67.265625 -30.125 L 60.25 0 Z M -2.21875 0 "/></g></g></g><g fill="#333333" fill-opacity="1"><g transform="translate(212.155909, 198.328303)"><g><path d="M -2.21875 0 L -1.84375 -1.84375 L 60.421875 -97.203125 L 39.171875 -97.203125 C 33.378906 -97.203125 29.160156 -96.304688 26.515625 -94.515625 C 23.867188 -92.734375 21.679688 -89.007812 19.953125 -83.34375 L 16.625 -72.8125 L 14.59375 -72.8125 L 21.8125 -99.046875 L 78.359375 -99.046875 L 77.984375 -97.390625 L 15.34375 -1.84375 L 43.609375 -1.84375 C 49.273438 -1.84375 53.15625 -2.734375 55.25 -4.515625 C 57.34375 -6.304688 59.066406 -9.238281 60.421875 -13.3125 L 65.421875 -30.125 L 67.265625 -30.125 L 60.25 0 Z M -2.21875 0 "/></g></g></g><g fill="#333333" fill-opacity="1"><g transform="translate(285.334895, 198.328303)"><g><path d="M 24.578125 1.84375 C 17.804688 1.84375 12.847656 -0.800781 9.703125 -6.09375 C 6.554688 -11.394531 4.984375 -18.601562 4.984375 -27.71875 C 4.984375 -33.632812 5.628906 -39.914062 6.921875 -46.5625 C 8.222656 -53.21875 10.132812 -59.75 12.65625 -66.15625 C 15.1875 -72.5625 18.359375 -78.378906 22.171875 -83.609375 C 25.992188 -88.847656 30.429688 -93.039062 35.484375 -96.1875 C 40.535156 -99.332031 46.265625 -100.90625 52.671875 -100.90625 C 56.859375 -100.90625 60.398438 -100.164062 63.296875 -98.6875 C 66.191406 -97.207031 68.5625 -95.601562 70.40625 -93.875 L 80.75 -98.859375 L 82.234375 -98.859375 L 68.921875 -35.84375 C 68.554688 -33.75 68.097656 -31.191406 67.546875 -28.171875 C 66.992188 -25.160156 66.5 -22.175781 66.0625 -19.21875 C 65.632812 -16.257812 65.421875 -13.734375 65.421875 -11.640625 C 65.421875 -5.722656 67.390625 -2.765625 71.328125 -2.765625 C 73.054688 -2.765625 74.75 -3.285156 76.40625 -4.328125 C 78.070312 -5.378906 79.832031 -6.894531 81.6875 -8.875 L 82.78125 -7.203125 C 80.6875 -4.984375 78.160156 -2.921875 75.203125 -1.015625 C 72.253906 0.890625 68.625 1.84375 64.3125 1.84375 C 55.6875 1.84375 51.375 -3.082031 51.375 -12.9375 C 51.375 -15.894531 51.617188 -18.910156 52.109375 -21.984375 C 52.609375 -25.066406 53.101562 -28.269531 53.59375 -31.59375 L 53.03125 -31.59375 C 48.71875 -19.644531 44.28125 -11.082031 39.71875 -5.90625 C 35.164062 -0.738281 30.117188 1.84375 24.578125 1.84375 Z M 29.5625 -1.65625 C 32.03125 -1.65625 34.585938 -3.070312 37.234375 -5.90625 C 39.878906 -8.738281 42.429688 -12.554688 44.890625 -17.359375 C 47.359375 -22.171875 49.609375 -27.59375 51.640625 -33.625 C 53.679688 -39.664062 55.378906 -45.953125 56.734375 -52.484375 L 65.046875 -93.140625 C 63.816406 -95.109375 62.210938 -96.582031 60.234375 -97.5625 C 58.265625 -98.550781 56.234375 -99.046875 54.140625 -99.046875 C 49.953125 -99.046875 46.132812 -97.382812 42.6875 -94.0625 C 39.238281 -90.738281 36.128906 -86.332031 33.359375 -80.84375 C 30.585938 -75.363281 28.210938 -69.296875 26.234375 -62.640625 C 24.265625 -55.992188 22.785156 -49.3125 21.796875 -42.59375 C 20.816406 -35.882812 20.328125 -29.695312 20.328125 -24.03125 C 20.328125 -16.144531 21.125 -10.441406 22.71875 -6.921875 C 24.320312 -3.410156 26.601562 -1.65625 29.5625 -1.65625 Z M 29.5625 -1.65625 "/></g></g></g></g></g><g transform="matrix(1, 0, 0, 1, 206, 384)"><g clip-path="url(#2fa45607e4)"><g fill="#333333" fill-opacity="1"><g transform="translate(2.039742, 127.768607)"><g><path d="M 60.3125 -6.265625 C 58.957031 -5.359375 57.375 -4.425781 55.5625 -3.46875 C 53.757812 -2.507812 51.867188 -1.632812 49.890625 -0.84375 C 47.910156 -0.0507812 45.929688 0.566406 43.953125 1.015625 C 41.984375 1.460938 40.035156 1.6875 38.109375 1.6875 C 33.253906 1.6875 28.648438 0.5625 24.296875 -1.6875 C 19.953125 -3.945312 16.171875 -7.023438 12.953125 -10.921875 C 9.734375 -14.816406 7.191406 -19.390625 5.328125 -24.640625 C 3.472656 -29.898438 2.546875 -35.519531 2.546875 -41.5 C 2.546875 -47.488281 3.472656 -53.050781 5.328125 -58.1875 C 7.191406 -63.332031 9.816406 -67.820312 13.203125 -71.65625 C 16.597656 -75.5 20.640625 -78.492188 25.328125 -80.640625 C 30.015625 -82.785156 35.125 -83.859375 40.65625 -83.859375 C 43.363281 -83.859375 45.566406 -83.628906 47.265625 -83.171875 C 48.960938 -82.722656 50.398438 -82.242188 51.578125 -81.734375 C 52.765625 -81.222656 53.8125 -80.742188 54.71875 -80.296875 C 55.625 -79.847656 56.582031 -79.625 57.59375 -79.625 C 59.175781 -79.625 59.96875 -80.46875 59.96875 -82.15625 L 59.96875 -88.9375 C 59.96875 -92.207031 59.597656 -94.660156 58.859375 -96.296875 C 58.128906 -97.941406 57.335938 -99.242188 56.484375 -100.203125 C 55.640625 -101.160156 54.851562 -101.976562 54.125 -102.65625 C 53.394531 -103.332031 53.03125 -104.296875 53.03125 -105.546875 C 53.03125 -107.117188 53.675781 -108.382812 54.96875 -109.34375 C 56.269531 -110.3125 58.050781 -111.242188 60.3125 -112.140625 L 79.953125 -120.109375 C 81.648438 -120.785156 83.175781 -121.125 84.53125 -121.125 C 88.375 -121.125 90.296875 -118.695312 90.296875 -113.84375 L 90.296875 -21.171875 C 90.296875 -17.898438 90.660156 -15.5 91.390625 -13.96875 C 92.128906 -12.445312 92.976562 -11.289062 93.9375 -10.5 C 94.894531 -9.707031 95.738281 -9 96.46875 -8.375 C 97.207031 -7.757812 97.578125 -6.601562 97.578125 -4.90625 C 97.578125 -3.4375 97.097656 -2.25 96.140625 -1.34375 C 95.179688 -0.445312 93.910156 0 92.328125 0 L 70.46875 0 C 68.78125 0 67.507812 -0.335938 66.65625 -1.015625 C 65.8125 -1.691406 64.878906 -3.160156 63.859375 -5.421875 C 63.078125 -7.003906 61.894531 -7.285156 60.3125 -6.265625 Z M 59.96875 -48.953125 C 59.96875 -54.710938 59.0625 -58.976562 57.25 -61.75 C 55.445312 -64.519531 53.078125 -65.90625 50.140625 -65.90625 C 46.191406 -65.90625 43.054688 -63.703125 40.734375 -59.296875 C 38.421875 -54.890625 37.265625 -48.847656 37.265625 -41.171875 C 37.265625 -34.054688 38.304688 -28.320312 40.390625 -23.96875 C 42.484375 -19.625 45.625 -17.453125 49.8125 -17.453125 C 52.851562 -17.453125 55.304688 -18.722656 57.171875 -21.265625 C 59.035156 -23.804688 59.96875 -27.5625 59.96875 -32.53125 Z M 59.96875 -48.953125 "/></g></g></g><g fill="#333333" fill-opacity="1"><g transform="translate(102.145496, 127.768607)"><g><path d="M 29.984375 -82.84375 C 31.679688 -83.519531 33.207031 -83.859375 34.5625 -83.859375 C 38.394531 -83.859375 40.3125 -81.429688 40.3125 -76.578125 L 40.3125 -21.171875 C 40.3125 -17.898438 40.707031 -15.5 41.5 -13.96875 C 42.289062 -12.445312 43.191406 -11.289062 44.203125 -10.5 C 45.222656 -9.707031 46.128906 -9 46.921875 -8.375 C 47.710938 -7.757812 48.109375 -6.601562 48.109375 -4.90625 C 48.109375 -3.4375 47.539062 -2.25 46.40625 -1.34375 C 45.28125 -0.445312 43.816406 0 42.015625 0 L 8.296875 0 C 6.492188 0 5.054688 -0.445312 3.984375 -1.34375 C 2.910156 -2.25 2.375 -3.492188 2.375 -5.078125 C 2.375 -6.773438 2.769531 -7.929688 3.5625 -8.546875 C 4.351562 -9.171875 5.226562 -9.90625 6.1875 -10.75 C 7.144531 -11.601562 8.019531 -12.789062 8.8125 -14.3125 C 9.601562 -15.84375 10 -18.300781 10 -21.6875 L 10 -51.671875 C 10 -54.722656 9.570312 -57.035156 8.71875 -58.609375 C 7.875 -60.191406 6.972656 -61.488281 6.015625 -62.5 C 5.054688 -63.519531 4.148438 -64.394531 3.296875 -65.125 C 2.453125 -65.863281 2.03125 -66.851562 2.03125 -68.09375 C 2.03125 -69.789062 2.847656 -71.117188 4.484375 -72.078125 C 6.128906 -73.035156 8.078125 -73.96875 10.328125 -74.875 Z M 7.96875 -104.859375 C 7.96875 -109.609375 9.601562 -113.617188 12.875 -116.890625 C 16.144531 -120.160156 20.15625 -121.796875 24.90625 -121.796875 C 29.644531 -121.796875 33.648438 -120.160156 36.921875 -116.890625 C 40.203125 -113.617188 41.84375 -109.609375 41.84375 -104.859375 C 41.84375 -100.117188 40.203125 -96.109375 36.921875 -92.828125 C 33.648438 -89.554688 29.644531 -87.921875 24.90625 -87.921875 C 20.15625 -87.921875 16.144531 -89.554688 12.875 -92.828125 C 9.601562 -96.109375 7.96875 -100.117188 7.96875 -104.859375 Z M 7.96875 -104.859375 "/></g></g></g><g fill="#333333" fill-opacity="1"><g transform="translate(152.283071, 127.768607)"><g><path d="M 2.546875 23.203125 C 2.546875 21.960938 2.769531 21.003906 3.21875 20.328125 C 3.664062 19.648438 4.398438 19.03125 5.421875 18.46875 C 7.222656 17.675781 8.71875 16.347656 9.90625 14.484375 C 11.09375 12.617188 11.6875 10.332031 11.6875 7.625 L 11.6875 -51.671875 C 11.6875 -54.722656 11.257812 -57.035156 10.40625 -58.609375 C 9.5625 -60.191406 8.660156 -61.488281 7.703125 -62.5 C 6.742188 -63.519531 5.84375 -64.394531 5 -65.125 C 4.15625 -65.863281 3.734375 -66.851562 3.734375 -68.09375 C 3.734375 -69.789062 4.550781 -71.117188 6.1875 -72.078125 C 7.820312 -73.035156 9.769531 -73.96875 12.03125 -74.875 L 31.671875 -82.84375 C 33.367188 -83.519531 34.894531 -83.859375 36.25 -83.859375 C 40.09375 -83.859375 42.015625 -81.429688 42.015625 -76.578125 L 42.015625 8.125 C 42.015625 11.519531 41.304688 14.628906 39.890625 17.453125 C 38.484375 20.273438 36.59375 22.703125 34.21875 24.734375 C 31.84375 26.765625 29.160156 28.316406 26.171875 29.390625 C 23.179688 30.460938 20.160156 31 17.109375 31 C 12.816406 31 9.316406 30.265625 6.609375 28.796875 C 3.898438 27.328125 2.546875 25.460938 2.546875 23.203125 Z M 9.65625 -104.859375 C 9.65625 -109.609375 11.289062 -113.617188 14.5625 -116.890625 C 17.84375 -120.160156 21.851562 -121.796875 26.59375 -121.796875 C 31.34375 -121.796875 35.351562 -120.160156 38.625 -116.890625 C 41.894531 -113.617188 43.53125 -109.609375 43.53125 -104.859375 C 43.53125 -100.117188 41.894531 -96.109375 38.625 -92.828125 C 35.351562 -89.554688 31.34375 -87.921875 26.59375 -87.921875 C 21.851562 -87.921875 17.84375 -89.554688 14.5625 -92.828125 C 11.289062 -96.109375 9.65625 -100.117188 9.65625 -104.859375 Z M 9.65625 -104.859375 "/></g></g></g><g fill="#333333" fill-opacity="1"><g transform="translate(200.04927, 127.768607)"><g><path d="M 29.984375 -82.84375 C 31.679688 -83.519531 33.207031 -83.859375 34.5625 -83.859375 C 38.394531 -83.859375 40.3125 -81.429688 40.3125 -76.578125 L 40.3125 -21.171875 C 40.3125 -17.898438 40.707031 -15.5 41.5 -13.96875 C 42.289062 -12.445312 43.191406 -11.289062 44.203125 -10.5 C 45.222656 -9.707031 46.128906 -9 46.921875 -8.375 C 47.710938 -7.757812 48.109375 -6.601562 48.109375 -4.90625 C 48.109375 -3.4375 47.539062 -2.25 46.40625 -1.34375 C 45.28125 -0.445312 43.816406 0 42.015625 0 L 8.296875 0 C 6.492188 0 5.054688 -0.445312 3.984375 -1.34375 C 2.910156 -2.25 2.375 -3.492188 2.375 -5.078125 C 2.375 -6.773438 2.769531 -7.929688 3.5625 -8.546875 C 4.351562 -9.171875 5.226562 -9.90625 6.1875 -10.75 C 7.144531 -11.601562 8.019531 -12.789062 8.8125 -14.3125 C 9.601562 -15.84375 10 -18.300781 10 -21.6875 L 10 -51.671875 C 10 -54.722656 9.570312 -57.035156 8.71875 -58.609375 C 7.875 -60.191406 6.972656 -61.488281 6.015625 -62.5 C 5.054688 -63.519531 4.148438 -64.394531 3.296875 -65.125 C 2.453125 -65.863281 2.03125 -66.851562 2.03125 -68.09375 C 2.03125 -69.789062 2.847656 -71.117188 4.484375 -72.078125 C 6.128906 -73.035156 8.078125 -73.96875 10.328125 -74.875 Z M 7.96875 -104.859375 C 7.96875 -109.609375 9.601562 -113.617188 12.875 -116.890625 C 16.144531 -120.160156 20.15625 -121.796875 24.90625 -121.796875 C 29.644531 -121.796875 33.648438 -120.160156 36.921875 -116.890625 C 40.203125 -113.617188 41.84375 -109.609375 41.84375 -104.859375 C 41.84375 -100.117188 40.203125 -96.109375 36.921875 -92.828125 C 33.648438 -89.554688 29.644531 -87.921875 24.90625 -87.921875 C 20.15625 -87.921875 16.144531 -89.554688 12.875 -92.828125 C 9.601562 -96.109375 7.96875 -100.117188 7.96875 -104.859375 Z M 7.96875 -104.859375 "/></g></g></g><g fill="#333333" fill-opacity="1"><g transform="translate(250.186845, 127.768607)"><g><path d="M 51.671875 -11.515625 C 54.265625 -10.722656 55.5625 -9.203125 55.5625 -6.953125 C 55.5625 -5.585938 55.023438 -4.34375 53.953125 -3.21875 C 52.878906 -2.09375 51.382812 -1.078125 49.46875 -0.171875 C 47.550781 0.734375 45.320312 1.410156 42.78125 1.859375 C 40.238281 2.316406 37.441406 2.546875 34.390625 2.546875 C 27.609375 2.546875 22.128906 0.457031 17.953125 -3.71875 C 13.773438 -7.90625 11.6875 -13.441406 11.6875 -20.328125 L 11.515625 -63.703125 C 11.515625 -64.828125 11.257812 -65.671875 10.75 -66.234375 C 10.25 -66.796875 9.320312 -67.25 7.96875 -67.59375 C 6.601562 -67.925781 5.46875 -68.601562 4.5625 -69.625 C 3.664062 -70.644531 3.078125 -71.800781 2.796875 -73.09375 C 2.515625 -74.394531 2.597656 -75.691406 3.046875 -76.984375 C 3.503906 -78.285156 4.351562 -79.390625 5.59375 -80.296875 L 30.328125 -98.421875 C 32.128906 -99.660156 33.820312 -100.28125 35.40625 -100.28125 C 37.320312 -100.28125 38.929688 -99.570312 40.234375 -98.15625 C 41.535156 -96.75 42.1875 -94.804688 42.1875 -92.328125 L 42.1875 -84.53125 C 42.1875 -81.820312 43.539062 -80.46875 46.25 -80.46875 L 48.78125 -80.46875 C 52.96875 -80.46875 55.0625 -78.320312 55.0625 -74.03125 C 55.0625 -69.625 52.96875 -67.421875 48.78125 -67.421875 L 46.59375 -67.421875 C 44.101562 -67.421875 42.859375 -66.179688 42.859375 -63.703125 L 42.859375 -22.015625 C 42.859375 -19.421875 43.703125 -17.21875 45.390625 -15.40625 C 47.085938 -13.601562 49.179688 -12.304688 51.671875 -11.515625 Z M 51.671875 -11.515625 "/></g></g></g><g fill="#333333" fill-opacity="1"><g transform="translate(308.285426, 127.768607)"><g><path d="M 40.484375 -84.703125 C 45.335938 -84.703125 49.851562 -84.273438 54.03125 -83.421875 C 58.21875 -82.578125 61.863281 -81.164062 64.96875 -79.1875 C 68.070312 -77.21875 70.5 -74.679688 72.25 -71.578125 C 74 -68.472656 74.875 -64.71875 74.875 -60.3125 L 74.875 -23.375 C 74.875 -19.539062 75.296875 -16.773438 76.140625 -15.078125 C 76.992188 -13.378906 77.925781 -12.109375 78.9375 -11.265625 C 79.957031 -10.421875 80.890625 -9.660156 81.734375 -8.984375 C 82.585938 -8.304688 83.015625 -7.117188 83.015625 -5.421875 C 83.015625 -3.835938 82.421875 -2.535156 81.234375 -1.515625 C 80.046875 -0.503906 78.71875 0 77.25 0 L 52.34375 0 C 50.875 0 49.828125 -0.335938 49.203125 -1.015625 C 48.585938 -1.691406 48.140625 -2.453125 47.859375 -3.296875 C 47.578125 -4.148438 47.347656 -4.914062 47.171875 -5.59375 C 47.003906 -6.269531 46.582031 -6.609375 45.90625 -6.609375 C 45.226562 -6.609375 44.351562 -6.179688 43.28125 -5.328125 C 42.207031 -4.484375 40.878906 -3.523438 39.296875 -2.453125 C 37.722656 -1.378906 35.773438 -0.421875 33.453125 0.421875 C 31.140625 1.265625 28.398438 1.6875 25.234375 1.6875 C 21.847656 1.6875 18.710938 1.097656 15.828125 -0.078125 C 12.953125 -1.265625 10.5 -2.898438 8.46875 -4.984375 C 6.4375 -7.078125 4.851562 -9.5625 3.71875 -12.4375 C 2.59375 -15.320312 2.03125 -18.515625 2.03125 -22.015625 C 2.03125 -29.140625 4.398438 -35.351562 9.140625 -40.65625 C 13.890625 -45.96875 20.671875 -49.863281 29.484375 -52.34375 L 41.671875 -55.734375 C 42.804688 -56.078125 43.597656 -56.441406 44.046875 -56.828125 C 44.492188 -57.222656 44.71875 -57.875 44.71875 -58.78125 L 47.9375 -49.125 L 44.71875 -39.984375 C 44.71875 -41.453125 44.097656 -42.1875 42.859375 -42.1875 C 41.734375 -42.1875 40.4375 -41.703125 38.96875 -40.734375 C 37.5 -39.773438 36.085938 -38.503906 34.734375 -36.921875 C 33.378906 -35.347656 32.25 -33.597656 31.34375 -31.671875 C 30.4375 -29.753906 29.984375 -27.835938 29.984375 -25.921875 C 29.984375 -23.429688 30.6875 -21.335938 32.09375 -19.640625 C 33.507812 -17.953125 35.234375 -17.109375 37.265625 -17.109375 C 38.960938 -17.109375 40.628906 -17.753906 42.265625 -19.046875 C 43.898438 -20.347656 44.71875 -22.300781 44.71875 -24.90625 L 44.71875 -62.171875 C 44.71875 -64.546875 44.125 -66.4375 42.9375 -67.84375 C 41.757812 -69.257812 40.207031 -69.96875 38.28125 -69.96875 C 36.132812 -69.96875 34.351562 -69.289062 32.9375 -67.9375 C 31.53125 -66.582031 30.148438 -65.082031 28.796875 -63.4375 C 27.441406 -61.800781 25.914062 -60.304688 24.21875 -58.953125 C 22.53125 -57.597656 20.382812 -56.921875 17.78125 -56.921875 C 14.738281 -56.921875 12.34375 -57.878906 10.59375 -59.796875 C 8.84375 -61.722656 7.96875 -64.148438 7.96875 -67.078125 C 7.96875 -72.503906 10.929688 -76.796875 16.859375 -79.953125 C 22.785156 -83.117188 30.660156 -84.703125 40.484375 -84.703125 Z M 40.484375 -84.703125 "/></g></g></g><g fill="#333333" fill-opacity="1"><g transform="translate(392.469131, 127.768607)"><g><path d="M 29.640625 -120.109375 C 31.335938 -120.785156 32.863281 -121.125 34.21875 -121.125 C 38.0625 -121.125 39.984375 -118.695312 39.984375 -113.84375 L 39.984375 -21.171875 C 39.984375 -17.898438 40.375 -15.5 41.15625 -13.96875 C 41.945312 -12.445312 42.851562 -11.289062 43.875 -10.5 C 44.894531 -9.707031 45.796875 -9 46.578125 -8.375 C 47.367188 -7.757812 47.765625 -6.601562 47.765625 -4.90625 C 47.765625 -3.4375 47.203125 -2.25 46.078125 -1.34375 C 44.953125 -0.445312 43.484375 0 41.671875 0 L 7.96875 0 C 6.15625 0 4.710938 -0.445312 3.640625 -1.34375 C 2.566406 -2.25 2.03125 -3.492188 2.03125 -5.078125 C 2.03125 -6.773438 2.425781 -7.929688 3.21875 -8.546875 C 4.007812 -9.171875 4.882812 -9.90625 5.84375 -10.75 C 6.800781 -11.601562 7.675781 -12.789062 8.46875 -14.3125 C 9.257812 -15.84375 9.65625 -18.300781 9.65625 -21.6875 L 9.65625 -88.9375 C 9.65625 -92.207031 9.285156 -94.660156 8.546875 -96.296875 C 7.816406 -97.941406 7.023438 -99.242188 6.171875 -100.203125 C 5.328125 -101.160156 4.535156 -101.976562 3.796875 -102.65625 C 3.066406 -103.332031 2.703125 -104.296875 2.703125 -105.546875 C 2.703125 -107.117188 3.351562 -108.382812 4.65625 -109.34375 C 5.957031 -110.3125 7.738281 -111.242188 10 -112.140625 Z M 29.640625 -120.109375 "/></g></g></g></g></g></svg>